<svg xmlns="http://www.w3.org/2000/svg" viewBox="0 0 64 64">
  <rect width="64" height="64" rx="12" fill="#1a1f4e"/>
  <path d="M32 8c-2 0-4 2-4 4v4c-8 4-14 12-14 22 0 10 8 18 18 18s18-8 18-18c0-10-6-18-14-22v-4c0-2-2-4-4-4z" fill="#d62828" opacity="0.9"/>
  <path d="M32 16c-1 0-2 1-2 2v2c-6 3-10 10-10 17 0 8 5.5 14 12 14s12-6 12-14c0-7-4-14-10-17v-2c0-1-1-2-2-2z" fill="#e85d5d" opacity="0.7"/>
  <path d="M32 24c-1 0-1.5 0.5-1.5 1.5v1.5c-4 2.5-6.5 7-6.5 12 0 5.5 3.5 10 8 10s8-4.5 8-10c0-5-2.5-9.5-6.5-12v-1.5c0-1-0.5-1.5-1.5-1.5z" fill="#ff8c42" opacity="0.8"/>
  <circle cx="32" cy="38" r="4" fill="#ffd700"/>
</svg>
